ffmpeg started on 2016-12-07 at 18:28:59
Report written to "Output/x264/results/ffmpeg/sintelslower500k.log"
Command line:
Tools/ffmpeg/ffmpeg -benchmark -y -i Input/y4m/sintel.y4m -c:v libx264 -preset slower -b:v 500k -an Output/x264/encoded/sintelslower500k.mkv
ffmpeg version N-82227-gdb23fde Copyright (c) 2000-2016 the FFmpeg developers
  built with gcc 5.4.0 (Ubuntu 5.4.0-6ubuntu1~16.04.2) 20160609
  configuration: --prefix=/home/jaroslav/ffmpeg_build --pkg-config-flags=--static --extra-cflags=-I/home/jaroslav/ffmpeg_build/include --extra-ldflags=-L/home/jaroslav/ffmpeg_build/lib --bindir=/home/jaroslav/bin --enable-gpl --enable-libass --enable-libfdk-aac --enable-libfreetype --enable-libmp3lame --enable-libopus --enable-libtheora --enable-libvorbis --enable-libvpx --enable-libx264 --enable-libx265 --enable-nvenc --enable-libmfx --enable-libxvid --enable-libgsm --enable-libopencore-amrnb --enable-version3 --enable-nonfree
  libavutil      55. 35.100 / 55. 35.100
  libavcodec     57. 66.101 / 57. 66.101
  libavformat    57. 57.100 / 57. 57.100
  libavdevice    57.  2.100 / 57.  2.100
  libavfilter     6. 66.100 /  6. 66.100
  libswscale      4.  3.100 /  4.  3.100
  libswresample   2.  4.100 /  2.  4.100
  libpostproc    54.  2.100 / 54.  2.100
Input #0, yuv4mpegpipe, from 'Input/y4m/sintel.y4m':
  Duration: 00:00:20.83, start: 0.000000, bitrate: 2057307 kb/s
    Stream #0:0: Video: rawvideo (I420 / 0x30323449), yuv420p(progressive), 4096x1744, SAR 1:1 DAR 256:109, 24 fps, 24 tbr, 24 tbn, 24 tbc
[libx264 @ 0x32441c0] using SAR=1/1
[libx264 @ 0x32441c0] DPB size (8 frames, 223232 mbs) > level limit (6 frames, 184320 mbs)
[libx264 @ 0x32441c0] using cpu capabilities: MMX2 SSE2Fast SSSE3 SSE4.2 AVX FMA3 AVX2 LZCNT BMI2
[libx264 @ 0x32441c0] profile High, level 5.2
[libx264 @ 0x32441c0] 264 - core 148 - H.264/MPEG-4 AVC codec - Copyleft 2003-2016 - http://www.videolan.org/x264.html - options: cabac=1 ref=8 deblock=1:0:0 analyse=0x3:0x133 me=umh subme=9 psy=1 psy_rd=1.00:0.00 mixed_ref=1 me_range=16 chroma_me=1 trellis=2 8x8dct=1 cqm=0 deadzone=21,11 fast_pskip=1 chroma_qp_offset=-2 threads=6 lookahead_threads=1 sliced_threads=0 nr=0 decimate=1 interlaced=0 bluray_compat=0 constrained_intra=0 bframes=3 b_pyramid=2 b_adapt=2 b_bias=0 direct=3 weightb=1 open_gop=0 weightp=2 keyint=250 keyint_min=24 scenecut=40 intra_refresh=0 rc_lookahead=60 rc=abr mbtree=1 bitrate=500 ratetol=1.0 qcomp=0.60 qpmin=0 qpmax=69 qpstep=4 ip_ratio=1.40 aq=1:1.00
Output #0, matroska, to 'Output/x264/encoded/sintelslower500k.mkv':
  Metadata:
    encoder         : Lavf57.57.100
    Stream #0:0: Video: h264 (libx264) (H264 / 0x34363248), yuv420p, 4096x1744 [SAR 1:1 DAR 256:109], q=-1--1, 500 kb/s, 24 fps, 1k tbn, 24 tbc
    Metadata:
      encoder         : Lavc57.66.101 libx264
    Side data:
      cpb: bitrate max/min/avg: 0/0/500000 buffer size: 0 vbv_delay: -1
Stream mapping:
  Stream #0:0 -> #0:0 (rawvideo (native) -> h264 (libx264))
Press [q] to stop, [?] for help
frame=   10 fps=0.0 q=0.0 size=       0kB time=00:00:00.00 bitrate=N/A speed=   0x    frame=   14 fps= 13 q=0.0 size=       0kB time=00:00:00.00 bitrate=N/A speed=   0x    frame=   20 fps= 13 q=0.0 size=       0kB time=00:00:00.00 bitrate=N/A speed=   0x    frame=   29 fps= 14 q=0.0 size=       0kB time=00:00:00.00 bitrate=N/A speed=   0x    frame=   38 fps= 15 q=0.0 size=       0kB time=00:00:00.00 bitrate=N/A speed=   0x    frame=   47 fps= 15 q=0.0 size=       0kB time=00:00:00.00 bitrate=N/A speed=   0x    frame=   56 fps= 15 q=0.0 size=       0kB time=00:00:00.00 bitrate=N/A speed=   0x    frame=   65 fps= 16 q=0.0 size=       0kB time=00:00:00.00 bitrate=N/A speed=   0x    frame=   67 fps=6.2 q=0.0 size=       0kB time=00:00:00.00 bitrate=N/A speed=   0x    frame=   71 fps=6.2 q=50.0 size=       1kB time=-00:00:00.08 bitrate=N/A speed=N/A    frame=   74 fps=6.1 q=54.0 size=       1kB time=00:00:00.04 bitrate= 136.9kbits/s speed=0.00357x    frame=   77 fps=6.1 q=61.0 size=       1kB time=00:00:00.16 bitrate=  35.0kbits/s speed=0.0134x    frame=   79 fps=5.9 q=64.0 size=       1kB time=00:00:00.25 bitrate=  23.5kbits/s speed=0.0188x    frame=   82 fps=5.8 q=66.0 size=       1kB time=00:00:00.37 bitrate=  15.7kbits/s speed=0.0266x    frame=   85 fps=5.7 q=67.0 size=       1kB time=00:00:00.50 bitrate=  11.8kbits/s speed=0.0337x    frame=   90 fps=5.7 q=69.0 size=       1kB time=00:00:00.70 bitrate=   8.3kbits/s speed=0.0448x    frame=   92 fps=5.6 q=69.0 size=       1kB time=00:00:00.79 bitrate=   7.4kbits/s speed=0.048x    frame=   94 fps=5.5 q=69.0 size=       1kB time=00:00:00.87 bitrate=   6.7kbits/s speed=0.051x    frame=   98 fps=5.5 q=69.0 size=       1kB time=00:00:01.04 bitrate=   5.6kbits/s speed=0.0589x    frame=  100 fps=5.5 q=69.0 size=       1kB time=00:00:01.12 bitrate=   5.2kbits/s speed=0.0618x    frame=  102 fps=5.4 q=69.0 size=       1kB time=00:00:01.20 bitrate=   4.9kbits/s speed=0.0642x    frame=  105 fps=5.4 q=69.0 size=       1kB time=00:00:01.33 bitrate=   4.4kbits/s speed=0.068x    frame=  107 fps=5.3 q=69.0 size=       1kB time=00:00:01.41 bitrate=   4.2kbits/s speed=0.0704x    frame=  110 fps=5.3 q=69.0 size=       1kB time=00:00:01.54 bitrate=   3.8kbits/s speed=0.074x    frame=  114 fps=5.3 q=69.0 size=       1kB time=00:00:01.70 bitrate=   3.4kbits/s speed=0.0799x    frame=  116 fps=5.3 q=69.0 size=       1kB time=00:00:01.79 bitrate=   3.3kbits/s speed=0.0819x    frame=  119 fps=5.3 q=69.0 size=       1kB time=00:00:01.91 bitrate=   3.1kbits/s speed=0.0855x    frame=  123 fps=5.3 q=69.0 size=       1kB time=00:00:02.08 bitrate=   2.8kbits/s speed=0.0896x    frame=  125 fps=5.2 q=69.0 size=       1kB time=00:00:02.16 bitrate=   2.7kbits/s speed=0.0907x    frame=  127 fps=5.2 q=69.0 size=       1kB time=00:00:02.25 bitrate=   2.6kbits/s speed=0.0918x    frame=  128 fps=5.1 q=69.0 size=       1kB time=00:00:02.29 bitrate=   2.6kbits/s speed=0.0916x    frame=  131 fps=5.1 q=69.0 size=       1kB time=00:00:02.41 bitrate=   2.4kbits/s speed=0.094x    frame=  133 fps=5.1 q=69.0 size=       1kB time=00:00:02.50 bitrate=   2.4kbits/s speed=0.0951x    frame=  135 fps=5.0 q=69.0 size=       1kB time=00:00:02.58 bitrate=   2.3kbits/s speed=0.0956x    frame=  137 fps=4.9 q=69.0 size=       1kB time=00:00:02.66 bitrate=   2.2kbits/s speed=0.0955x    frame=  141 fps=4.9 q=69.0 size=       1kB time=00:00:02.83 bitrate=   2.1kbits/s speed=0.0992x    frame=  143 fps=4.9 q=69.0 size=       1kB time=00:00:02.91 bitrate=   2.0kbits/s speed= 0.1x    frame=  145 fps=4.9 q=69.0 size=       1kB time=00:00:03.00 bitrate=   2.0kbits/s speed=0.101x    frame=  148 fps=4.9 q=69.0 size=       1kB time=00:00:03.12 bitrate=   1.9kbits/s speed=0.103x    frame=  150 fps=4.8 q=69.0 size=       1kB time=00:00:03.20 bitrate=   1.8kbits/s speed=0.102x    frame=  152 fps=4.8 q=69.0 size=       1kB time=00:00:03.29 bitrate=   1.8kbits/s speed=0.103x    frame=  155 fps=4.8 q=69.0 size=       1kB time=00:00:03.41 bitrate=   1.7kbits/s speed=0.105x    frame=  157 fps=4.7 q=69.0 size=       1kB time=00:00:03.50 bitrate=   1.7kbits/s speed=0.105x    frame=  158 fps=4.7 q=69.0 size=       1kB time=00:00:03.54 bitrate=   1.7kbits/s speed=0.105x    frame=  161 fps=4.7 q=69.0 size=       1kB time=00:00:03.66 bitrate=   1.6kbits/s speed=0.106x    frame=  164 fps=4.6 q=69.0 size=       1kB time=00:00:03.79 bitrate=   1.6kbits/s speed=0.107x    frame=  167 fps=4.6 q=69.0 size=       1kB time=00:00:03.91 bitrate=   1.5kbits/s speed=0.108x    frame=  171 fps=4.7 q=69.0 size=       1kB time=00:00:04.08 bitrate=   1.4kbits/s speed=0.111x    frame=  173 fps=4.6 q=69.0 size=       1kB time=00:00:04.16 bitrate=   1.4kbits/s speed=0.112x    frame=  177 fps=4.7 q=69.0 size=       1kB time=00:00:04.33 bitrate=   1.4kbits/s speed=0.114x    frame=  183 fps=4.7 q=69.0 size=       1kB time=00:00:04.58 bitrate=   1.3kbits/s speed=0.117x    frame=  189 fps=4.8 q=69.0 size=     852kB time=00:00:04.83 bitrate=1443.2kbits/s speed=0.122x    frame=  193 fps=4.8 q=69.0 size=     852kB time=00:00:05.00 bitrate=1395.0kbits/s speed=0.124x    frame=  197 fps=4.8 q=69.0 size=     852kB time=00:00:05.16 bitrate=1349.9kbits/s speed=0.126x    frame=  198 fps=4.7 q=69.0 size=     852kB time=00:00:05.20 bitrate=1339.3kbits/s speed=0.125x    frame=  200 fps=4.7 q=69.0 size=     852kB time=00:00:05.29 bitrate=1318.0kbits/s speed=0.125x    frame=  203 fps=4.7 q=69.0 size=     852kB time=00:00:05.41 bitrate=1287.6kbits/s speed=0.126x    frame=  205 fps=4.7 q=69.0 size=     852kB time=00:00:05.50 bitrate=1268.2kbits/s speed=0.126x    frame=  207 fps=4.7 q=69.0 size=     852kB time=00:00:05.58 bitrate=1249.3kbits/s speed=0.126x    frame=  209 fps=4.7 q=69.0 size=     852kB time=00:00:05.66 bitrate=1230.8kbits/s speed=0.127x    frame=  212 fps=4.7 q=69.0 size=     852kB time=00:00:05.79 bitrate=1204.3kbits/s speed=0.128x    frame=  215 fps=4.7 q=69.0 size=     852kB time=00:00:05.91 bitrate=1178.8kbits/s speed=0.128x    frame=  219 fps=4.7 q=69.0 size=     852kB time=00:00:06.08 bitrate=1146.7kbits/s speed=0.13x    frame=  221 fps=4.7 q=69.0 size=     852kB time=00:00:06.16 bitrate=1131.0kbits/s speed=0.13x    frame=  227 fps=4.7 q=69.0 size=     852kB time=00:00:06.41 bitrate=1087.0kbits/s speed=0.134x    frame=  228 fps=4.6 q=69.0 size=     852kB time=00:00:06.45 bitrate=1080.1kbits/s speed=0.131x    frame=  234 fps=4.7 q=69.0 size=     852kB time=00:00:06.70 bitrate=1039.8kbits/s speed=0.134x    frame=  236 fps=4.6 q=69.0 size=     852kB time=00:00:06.79 bitrate=1027.0kbits/s speed=0.134x    frame=  239 fps=4.6 q=69.0 size=     852kB time=00:00:06.91 bitrate=1008.4kbits/s speed=0.134x    frame=  242 fps=4.6 q=69.0 size=     852kB time=00:00:07.04 bitrate= 990.5kbits/s speed=0.135x    frame=  245 fps=4.6 q=69.0 size=     852kB time=00:00:07.16 bitrate= 973.2kbits/s speed=0.135x    frame=  248 fps=4.6 q=69.0 size=     852kB time=00:00:07.29 bitrate= 956.6kbits/s speed=0.136x    frame=  251 fps=4.6 q=69.0 size=     852kB time=00:00:07.41 bitrate= 940.4kbits/s speed=0.137x    frame=  255 fps=4.7 q=69.0 size=    1367kB time=00:00:07.58 bitrate=1476.4kbits/s speed=0.138x    frame=  260 fps=4.7 q=69.0 size=    1367kB time=00:00:07.79 bitrate=1436.8kbits/s speed=0.141x    frame=  264 fps=4.7 q=69.0 size=    1367kB time=00:00:07.95 bitrate=1406.8kbits/s speed=0.142x    frame=  268 fps=4.7 q=69.0 size=    1367kB time=00:00:08.12 bitrate=1377.9kbits/s speed=0.144x    frame=  270 fps=4.7 q=69.0 size=    1367kB time=00:00:08.20 bitrate=1364.0kbits/s speed=0.143x    frame=  273 fps=4.7 q=69.0 size=    1367kB time=00:00:08.33 bitrate=1343.5kbits/s speed=0.143x    frame=  277 fps=4.7 q=69.0 size=    1367kB time=00:00:08.50 bitrate=1317.2kbits/s speed=0.145x    frame=  279 fps=4.7 q=69.0 size=    1367kB time=00:00:08.58 bitrate=1304.4kbits/s speed=0.145x    frame=  286 fps=4.8 q=69.0 size=    1367kB time=00:00:08.87 bitrate=1261.5kbits/s speed=0.149x    frame=  292 fps=4.8 q=69.0 size=    1367kB time=00:00:09.12 bitrate=1226.9kbits/s speed=0.151x    frame=  297 fps=4.9 q=69.0 size=    1367kB time=00:00:09.33 bitrate=1199.6kbits/s speed=0.153x    frame=  301 fps=4.9 q=69.0 size=    1367kB time=00:00:09.50 bitrate=1178.5kbits/s speed=0.154x    frame=  306 fps=4.9 q=69.0 size=    1367kB time=00:00:09.70 bitrate=1153.3kbits/s speed=0.156x    frame=  310 fps=4.9 q=69.0 size=    1367kB time=00:00:09.87 bitrate=1133.8kbits/s speed=0.157x    frame=  314 fps=5.0 q=69.0 size=    1367kB time=00:00:10.04 bitrate=1114.9kbits/s speed=0.159x    frame=  316 fps=5.0 q=69.0 size=    1367kB time=00:00:10.12 bitrate=1105.8kbits/s speed=0.159x    frame=  320 fps=5.0 q=69.0 size=    1367kB time=00:00:10.29 bitrate=1087.8kbits/s speed=0.159x    frame=  325 fps=5.0 q=69.0 size=    1367kB time=00:00:10.50 bitrate=1066.3kbits/s speed=0.161x    frame=  331 fps=5.0 q=66.0 size=    1367kB time=00:00:10.75 bitrate=1041.5kbits/s speed=0.163x    frame=  339 fps=5.1 q=69.0 size=    1668kB time=00:00:11.08 bitrate=1232.9kbits/s speed=0.167x    frame=  343 fps=5.1 q=69.0 size=    1668kB time=00:00:11.25 bitrate=1214.6kbits/s speed=0.168x    frame=  348 fps=5.2 q=69.0 size=    1668kB time=00:00:11.45 bitrate=1192.5kbits/s speed=0.17x    frame=  354 fps=5.2 q=69.0 size=    1668kB time=00:00:11.70 bitrate=1167.0kbits/s speed=0.172x    frame=  359 fps=5.2 q=69.0 size=    1668kB time=00:00:11.91 bitrate=1146.6kbits/s speed=0.174x    frame=  365 fps=5.3 q=69.0 size=    1668kB time=00:00:12.16 bitrate=1123.0kbits/s speed=0.176x    frame=  372 fps=5.3 q=69.0 size=    1668kB time=00:00:12.45 bitrate=1096.8kbits/s speed=0.179x    frame=  377 fps=5.3 q=69.0 size=    1668kB time=00:00:12.66 bitrate=1078.7kbits/s speed=0.18x    frame=  384 fps=5.4 q=69.0 size=    1668kB time=00:00:12.95 bitrate=1054.5kbits/s speed=0.182x    frame=  391 fps=5.4 q=69.0 size=    1668kB time=00:00:13.25 bitrate=1031.2kbits/s speed=0.184x    frame=  397 fps=5.5 q=69.0 size=    1668kB time=00:00:13.50 bitrate=1012.1kbits/s speed=0.186x    frame=  402 fps=5.5 q=69.0 size=    1668kB time=00:00:13.70 bitrate= 996.8kbits/s speed=0.187x    frame=  407 fps=5.5 q=69.0 size=    1668kB time=00:00:13.91 bitrate= 981.8kbits/s speed=0.188x    frame=  412 fps=5.5 q=69.0 size=    1668kB time=00:00:14.12 bitrate= 967.4kbits/s speed=0.19x    frame=  417 fps=5.6 q=69.0 size=    1668kB time=00:00:14.33 bitrate= 953.3kbits/s speed=0.191x    frame=  422 fps=5.6 q=69.0 size=    1668kB time=00:00:14.54 bitrate= 939.6kbits/s speed=0.192x    frame=  426 fps=5.6 q=69.0 size=    1668kB time=00:00:14.70 bitrate= 929.0kbits/s speed=0.192x    frame=  434 fps=5.6 q=69.0 size=    1811kB time=00:00:15.04 bitrate= 986.2kbits/s speed=0.195x    frame=  439 fps=5.6 q=69.0 size=    1811kB time=00:00:15.25 bitrate= 972.7kbits/s speed=0.196x    frame=  445 fps=5.7 q=69.0 size=    1811kB time=00:00:15.50 bitrate= 957.0kbits/s speed=0.197x    frame=  451 fps=5.7 q=69.0 size=    1811kB time=00:00:15.75 bitrate= 941.9kbits/s speed=0.199x    frame=  457 fps=5.7 q=69.0 size=    1811kB time=00:00:16.00 bitrate= 927.1kbits/s speed= 0.2x    frame=  461 fps=5.7 q=69.0 size=    1811kB time=00:00:16.16 bitrate= 917.6kbits/s speed=0.201x    frame=  465 fps=5.8 q=69.0 size=    1811kB time=00:00:16.33 bitrate= 908.2kbits/s speed=0.202x    frame=  470 fps=5.8 q=69.0 size=    1811kB time=00:00:16.54 bitrate= 896.8kbits/s speed=0.203x    frame=  475 fps=5.8 q=69.0 size=    1811kB time=00:00:16.75 bitrate= 885.6kbits/s speed=0.204x    frame=  480 fps=5.8 q=69.0 size=    1811kB time=00:00:16.95 bitrate= 874.8kbits/s speed=0.205x    frame=  483 fps=5.8 q=69.0 size=    1811kB time=00:00:17.08 bitrate= 868.4kbits/s speed=0.205x    frame=  491 fps=5.9 q=69.0 size=    1930kB time=00:00:17.41 bitrate= 907.8kbits/s speed=0.208x    frame=  497 fps=5.9 q=69.0 size=    1930kB time=00:00:17.66 bitrate= 894.9kbits/s speed=0.209x    frame=  500 fps=5.6 q=-1.0 Lsize=    2078kB time=00:00:20.70 bitrate= 822.2kbits/s speed=0.232x    
video:2074kB audio:0kB subtitle:0kB other streams:0kB global headers:0kB muxing overhead: 0.211217%
bench: utime=275.700s
bench: maxrss=2146140kB
[libx264 @ 0x32441c0] frame I:6     Avg QP:49.47  size:  4712
[libx264 @ 0x32441c0] frame P:273   Avg QP:50.97  size:  7365
[libx264 @ 0x32441c0] frame B:221   Avg QP:50.93  size:   381
[libx264 @ 0x32441c0] consecutive B-frames: 35.2% 11.6% 18.0% 35.2%
[libx264 @ 0x32441c0] mb I  I16..4: 43.5% 56.5%  0.0%
[libx264 @ 0x32441c0] mb P  I16..4: 14.2%  1.2%  0.0%  P16..4: 16.3%  0.0%  0.0%  0.0%  0.0%    skip:68.3%
[libx264 @ 0x32441c0] mb B  I16..4:  0.0%  0.0%  0.0%  B16..8:  0.7%  0.0%  0.0%  direct: 0.0%  skip:99.2%  L0:52.7% L1:46.9% BI: 0.4%
[libx264 @ 0x32441c0] final ratefactor: 67.57
[libx264 @ 0x32441c0] 8x8 transform intra:13.8% inter:99.4%
[libx264 @ 0x32441c0] direct mvs  spatial:99.1% temporal:0.9%
[libx264 @ 0x32441c0] coded y,uvDC,uvAC intra: 0.3% 0.7% 0.0% inter: 0.0% 0.0% 0.0%
[libx264 @ 0x32441c0] i16 v,h,dc,p: 95%  4%  1%  0%
[libx264 @ 0x32441c0] i8 v,h,dc,ddl,ddr,vr,hd,vl,hu: 18%  3% 78%  0%  0%  0%  0%  0%  0%
[libx264 @ 0x32441c0] i4 v,h,dc,ddl,ddr,vr,hd,vl,hu: 50%  8% 23%  0%  6%  6%  0%  4%  2%
[libx264 @ 0x32441c0] i8c dc,h,v,p: 100%  0%  0%  0%
[libx264 @ 0x32441c0] Weighted P-Frames: Y:1.1% UV:0.7%
[libx264 @ 0x32441c0] ref P L0: 25.7%  0.4% 25.9% 10.6%  9.6%  9.3%  9.9%  4.5%  4.1%  0.0%
[libx264 @ 0x32441c0] ref B L0: 77.6% 12.8%  5.8%  1.8%  1.0%  0.9%  0.2%
[libx264 @ 0x32441c0] ref B L1: 93.6%  6.4%
[libx264 @ 0x32441c0] kb/s:815.31
